# xmcd
#
# Track frame offsets: 
#        150
#        17955
#        37900
#        51464
#        66664
#        84479
#        100695
#        118592
#        139856
#        156483
#        183670
#
# Disc length: 2661 seconds
#
# Revision: 2
# Processed by: cddbd v1.5.2PL0 Copyright (c) Steve Scherf et al.
# Submitted via: ExactAudioCopy v1.0b3
#
DISCID=9e0a630b
DTITLE=Батыр - Твои Шаги
DYEAR=2006
DGENRE=Pop
TTITLE0=Мелодия Любви
TTITLE1=Ты Скажи
TTITLE2=Твои Шаги
TTITLE3=Отпусти
TTITLE4=Ревнивая
TTITLE5=Слышишь Сердце
TTITLE6=Обещай
TTITLE7=Признание
TTITLE8=Зима
TTITLE9=Осенний Мотив
TTITLE10=Video: Твои Шаги (Bonus)
EXTD=
EXTT0=
EXTT1=
EXTT2=
EXTT3=
EXTT4=
EXTT5=
EXTT6=
EXTT7=
EXTT8=
EXTT9=
EXTT10=
PLAYORDER=
